#!OML:ASF F:\VICON\USERDATA\INSTALL\SteveWalk\SteveWalk.ASF
:FULLY-SPECIFIED
:DEGREES
201
root -0.112114 16.3426 -2.2848 16.6858 -2.82926 3.53595
lowerback -13.9953 -0.588988 -4.95193
upperback -5.26558 -0.0836655 -1.37301
thorax 2.28882 -0.0130528 1.34439
lowerneck -6.30555 -0.127679 -0.57232
upperneck 9.21989 -0.280965 1.66274
head 4.15605 -0.0799591 0.64257
rclavicle 1.78728e-014 -8.94531e-015
rhumerus -38.9113 -5.86958 -85.9376
rradius 32.01
rwrist -11.4777
rhand -15.6017 -37.0472
rfingers 7.12502
rthumb 10.5844 -66.7607
lclavicle 1.78728e-014 -8.94531e-015
lhumerus -41.8743 27.9909 67.7494
lradius 16.0201
lwrist -20.4636
lhand -18.8175 -15.9345
lfingers 7.12502
lthumb 7.48132 13.9132
rfemur -39.8202 -5.4166 18.0396
rtibia 74.3754
rfoot -8.95956 2.11149
rtoes -7.11203
lfemur -32.3318 -0.145465 -27.0022
ltibia 37.5244
lfoot -19.5558 1.41567
ltoes -1.71447
202
root -0.105084 16.3413 -2.08923 16.5053 -2.86125 3.30596
lowerback -13.8067 -0.635225 -4.62924
upperback -5.22092 -0.202751 -1.21847
thorax 2.24289 -0.0736937 1.30654
lowerneck -6.21557 -0.0496052 -0.514976
upperneck 9.32993 -0.160184 1.4322
head 4.17467 -0.029394 0.562053
rclavicle 5.25964e-015 -2.5842e-014
rhumerus -39.7007 -6.98702 -85.0827
rradius 29.7755
rwrist -10.0229
rhand -15.2252 -36.3517
rfingers 7.12502
rthumb 10.9476 -66.0463
lclavicle 5.25964e-015 -2.5842e-014
lhumerus -39.5997 25.6569 70.5427
lradius 17.0301
lwrist -17.8271
lhand -19.0102 -16.238
lfingers 7.12502
lthumb 7.29535 13.6163
rfemur -41.0443 -5.27642 18.571
rtibia 73.3075
rfoot -10.035 1.63413
rtoes -6.64109
lfemur -31.2543 -0.00565775 -26.806
ltibia 37.3468
lfoot -20.2475 1.28358
ltoes -1.25075
203
root -0.0942995 16.3337 -1.87831 16.3674 -2.67606 3.2146
lowerback -13.9155 -0.735511 -4.36415
upperback -5.07249 -0.36164 -1.11143
thorax 2.46694 -0.160189 1.2435
lowerneck -6.23789 -0.0160135 -0.43925
upperneck 9.35997 -0.100996 1.21397
head 4.18833 -0.00781966 0.478891
rclavicle -1.02817e-014 -1.61016e-014
rhumerus -40.3465 -8.45278 -83.94
rradius 27.4519
rwrist -7.86987
rhand -14.5071 -35.6952
rfingers 7.12502
rthumb 11.6401 -65.3519
lclavicle -1.02817e-014 -1.61016e-014
lhumerus -37.4299 23.1898 73.0827
lradius 18.0613
lwrist -15.097
lhand -19.1256 -16.7414
lfingers 7.12502
lthumb 7.18391 13.1166
rfemur -42.0696 -5.46828 18.9906
rtibia 72.0417
rfoot -10.9258 1.04592
rtoes -10.1752
lfemur -30.1669 0.222755 -26.7948
ltibia 37.1783
lfoot -21.0872 0.9643
ltoes -0.727831
204
root -0.0894803 16.3263 -1.6708 16.3539 -2.57628 3.11976
lowerback -13.9032 -0.843058 -4.2575
upperback -5.00805 -0.522164 -0.946317
thorax 2.5376 -0.241734 1.33045
lowerneck -6.39808 0.0593159 -0.586272
upperneck 9.38307 0.0144979 1.22593
head 4.22801 0.0449159 0.516188
rclavicle -2.68573e-015 -6.55989e-015
rhumerus -40.9832 -10.0779 -82.5229
rradius 25.1915
rwrist -5.18154
rhand -13.7437 -35.4459
rfingers 7.12502
rthumb 12.3762 -65.0595
lclavicle -2.68573e-015 -6.55989e-015
lhumerus -35.6091 20.3008 75.4924
lradius 19.4344
lwrist -11.662
lhand -19.1636 -16.4285
lfingers 7.12502
lthumb 7.14723 13.4308
rfemur -43.3102 -5.44527 19.4641
rtibia 70.6031
rfoot -12.2034 0.278034
rtoes -13.3672
lfemur -29.2495 0.432566 -26.7428
ltibia 37.0163
lfoot -21.7692 0.841146
ltoes -0.689149
205
root -0.0858354 16.3297 -1.46585 16.4228 -2.40213 2.86857
lowerback -13.777 -0.949062 -3.93021
upperback -5.11013 -0.721068 -0.779693
thorax 2.37294 -0.337759 1.29066
lowerneck -6.02559 0.139158 -0.592838
upperneck 9.19824 0.132892 1.12553
head 4.0854 0.0970331 0.487974
rclavicle -3.79564e-015 1.60022e-014
rhumerus -42.0275 -11.6967 -81.0239
rradius 23.3872
rwrist -2.41285
rhand -13.3125 -36.0966
rfingers 7.12502
rthumb 12.7919 -65.6847
lclavicle -3.79564e-015 1.60022e-014
lhumerus -34.2196 17.4809 77.3523
lradius 20.9382
lwrist -8.38602
lhand -19.0669 -15.6984
lfingers 7.12502
lthumb 7.24056 14.1577
rfemur -44.6134 -5.39491 20.1243
rtibia 68.9092
rfoot -13.3591 -0.51381
rtoes -17.3821
lfemur -28.4221 0.63998 -26.4917
ltibia 36.8413
lfoot -22.2279 0.449125
ltoes 0.275322
206
root -0.0823641 16.3259 -1.2589 16.4915 -2.18671 2.74076
lowerback -13.8627 -1.08586 -3.70473
upperback -5.13385 -0.932721 -0.634201
thorax 2.40476 -0.443959 1.28152
lowerneck -5.60458 0.210413 -0.466456
upperneck 8.96537 0.24705 0.812751
head 3.91709 0.142272 0.364796
rclavicle -2.12042e-014 -7.25564e-015
rhumerus -43.1796 -13.3497 -79.2817
rradius 21.7227
rwrist 0.533715
rhand -13.2062 -36.3947
rfingers 7.12502
rthumb 12.8944 -65.9764
lclavicle -2.12042e-014 -7.25564e-015
lhumerus -32.7723 15.2657 78.779
lradius 22.2266
lwrist -6.19875
lhand -19.3946 -15.9297
lfingers 7.12502
lthumb 6.92421 13.9371
rfemur -45.672 -5.4131 20.5885
rtibia 66.9551
rfoot -13.9207 -1.08576
rtoes -17.8852
lfemur -27.5482 1.01711 -26.4076
ltibia 36.6188
lfoot -22.8182 -0.0775834
ltoes 1.30666
207
root -0.0849253 16.3147 -1.05242 16.5415 -1.91386 2.54689
lowerback -13.8685 -1.18867 -3.56272
upperback -5.13551 -1.09359 -0.432787
thorax 2.41587 -0.523645 1.3864
lowerneck -5.67342 0.253159 -0.453846
upperneck 8.97111 0.315949 0.683298
head 3.9323 0.170998 0.323379
rclavicle -9.47265e-015 2.08724e-015
rhumerus -44.349 -15.6039 -76.8186
rradius 19.7116
rwrist 3.99916
rhand -13.133 -35.7066
rfingers 7.12502
rthumb 12.9649 -65.2838
lclavicle -9.47265e-015 2.08724e-015
lhumerus -31.4112 12.8903 80.1291
lradius 23.731
lwrist -4.29612
lhand -19.9895 -16.5865
lfingers 7.12502
lthumb 6.34996 13.2983
rfemur -46.5034 -5.39566 21.1609
rtibia 64.7216
rfoot -14.0602 -1.96684
rtoes -15.2615
lfemur -26.5943 1.6367 -26.2567
ltibia 36.3609
lfoot -23.7449 -0.252841
ltoes -0.610208
208
root -0.0858002 16.3136 -0.845015 16.5847 -1.55722 2.34733
lowerback -13.6218 -1.2711 -3.36178
upperback -5.25815 -1.24669 -0.283478
thorax 2.16223 -0.595228 1.41023
lowerneck -5.73259 0.258444 -0.466307
upperneck 9.14216 0.322457 0.695886
head 4.00488 0.174435 0.330983
rclavicle 4.97025e-015 -3.97569e-015
rhumerus -45.8392 -18.4795 -73.6566
rradius 17.6325
rwrist 8.11077
rhand -12.8769 -35.4056
rfingers 7.12502
rthumb 13.2118 -64.9669
lclavicle 4.97025e-015 -3.97569e-015
lhumerus -30.2158 10.4582 81.1725
lradius 25.2019
lwrist -2.44889
lhand -20.0571 -16.1763
lfingers 7.12502
lthumb 6.28465 13.7104
rfemur -47.1792 -5.53436 21.7758
rtibia 62.2011
rfoot -14.589 -3.32381
rtoes -12.7417
lfemur -25.6143 2.36245 -26.084
ltibia 36.01
lfoot -24.5819 -0.723053
ltoes -2.41078
209
root -0.0816534 16.308 -0.634838 16.6586 -1.28811 2.35752
lowerback -14.7477 -1.44033 -2.99699
upperback -4.58385 -1.4551 -0.405938
thorax 3.47563 -0.724278 1.0133
lowerneck -5.83797 0.318836 -0.27133
upperneck 8.69235 0.383369 0.735805
head 3.86575 0.213018 0.311511
rclavicle -2.79215e-014 -2.08227e-014
rhumerus -46.6151 -22.5294 -70.1927
rradius 15.5411
rwrist 13.6245
rhand -12.9649 -34.903
rfingers 7.12502
rthumb 13.127 -64.4699
lclavicle -2.79215e-014 -2.08227e-014
lhumerus -27.8617 8.4746 81.6759
lradius 26.2555
lwrist -0.677542
lhand -19.7154 -15.5407
lfingers 7.12502
lthumb 6.61453 14.336
rfemur -47.767 -5.74958 22.1121
rtibia 59.4641
rfoot -14.1806 -3.97508
rtoes -9.20861
lfemur -24.5943 3.01899 -26.1363
ltibia 35.4137
lfoot -24.8852 -1.57526
ltoes -1.66726
210
root -0.0881643 16.3009 -0.421414 16.6129 -1.02206 2.42662
lowerback -14.5564 -1.57857 -3.147
upperback -4.67337 -1.62999 -0.294179
thorax 3.29236 -0.807427 1.18966
lowerneck -5.77108 0.293778 -0.168331
upperneck 8.82371 0.357238 0.544656
head 3.8995 0.194907 0.228807
rclavicle 2.70262e-015 1.8313e-014
rhumerus -49.3591 -26.0782 -65.269
rradius 14.2182
rwrist 19.3972
rhand -12.94 -34.2041
rfingers 7.12502
rthumb 13.151 -63.7694
lclavicle 2.70262e-015 1.8313e-014
lhumerus -26.9842 6.35035 82.271
lradius 27.7653
lwrist 0.998041
lhand -19.3679 -15.2936
lfingers 7.12502
lthumb 6.95004 14.5723
rfemur -48.1904 -5.74634 22.3082
rtibia 56.5424
rfoot -14.8549 -4.5048
rtoes -10.3182
lfemur -23.306 3.51154 -26.141
ltibia 34.6347
lfoot -25.073 -2.05274
ltoes -2.09607
211
root -0.0993261 16.3212 -0.201801 16.3958 -0.461799 2.51714
lowerback -14.277 -1.76242 -3.32463
upperback -4.58294 -1.85958 -0.220985
thorax 3.2547 -0.921023 1.332
lowerneck -5.93164 0.278438 0.074452
upperneck 8.79407 0.334935 0.317699
head 3.9216 0.181962 0.109782
rclavicle -1.59598e-014 -2.43511e-014
rhumerus -52.7364 -29.8878 -59.499
rradius 13.2701
rwrist 25.4937
rhand -12.6104 -34.0356
rfingers 7.12502
rthumb 13.4687 -63.5801
lclavicle -1.59598e-014 -2.43511e-014
lhumerus -25.8444 4.3513 82.7065
lradius 29.2464
lwrist 2.28383
lhand -19.2892 -15.2025
lfingers 7.12502
lthumb 7.02597 14.6609
rfemur -48.3372 -5.90658 22.4399
rtibia 53.415
rfoot -15.4917 -5.40065
rtoes -12.0615
lfemur -21.7244 3.86507 -26.0255
ltibia 33.7516
lfoot -25.4163 -2.45618
ltoes -3.62186
212
root -0.0932588 16.3379 0.00706002 16.4598 -0.292186 2.10552
lowerback -14.7822 -1.74168 -2.68127
upperback -4.23386 -1.90178 -0.15278
thorax 3.8801 -0.951183 1.01472
lowerneck -5.92862 0.313564 0.359577
upperneck 8.26096 0.371516 0.151471
head 3.73341 0.201448 0.00541041
rclavicle 6.30792e-015 -1.43746e-014
rhumerus -56.8995 -34.6269 -52.0357
rradius 12.1025
rwrist 32.9438
rhand -12.9825 -33.6997
rfingers 7.12502
rthumb 13.11 -63.2676
lclavicle 6.30792e-015 -1.43746e-014
lhumerus -24.0566 2.75201 82.8028
lradius 30.3834
lwrist 3.34855
lhand -19.203 -15.7588
lfingers 7.12502
lthumb 7.10915 14.1018
rfemur -48.6578 -5.9103 23.0037
rtibia 50.1376
rfoot -15.5277 -5.68995
rtoes -11.6133
lfemur -20.4881 4.59022 -25.5729
ltibia 32.7864
lfoot -25.5288 -3.01686
ltoes -3.85417
213
root -0.103011 16.3473 0.223284 16.1836 0.26589 1.34912
lowerback -13.4784 -1.81877 -2.32679
upperback -4.81895 -2.12433 0.455423
thorax 2.58273 -1.0432 1.45812
lowerneck -5.46257 0.270089 0.248008
upperneck 8.51254 0.355967 -0.189243
head 3.73078 0.175397 -0.0886172
rclavicle -3.57777e-014 -1.49089e-014
rhumerus -62.3484 -36.7436 -43.8536
rradius 11.2941
rwrist 38.8532
rhand -13.5024 -33.7926
rfingers 7.12502
rthumb 12.6088 -63.3921
lclavicle -3.57777e-014 -1.49089e-014
lhumerus -23.9915 1.5924 83.2925
lradius 31.8838
lwrist 4.09508
lhand -19.2587 -16.1435
lfingers 7.12502
lthumb 7.05546 13.7189
rfemur -48.2839 -5.67176 23.7916
rtibia 46.6971
rfoot -15.4653 -5.68399
rtoes -8.50183
lfemur -18.8758 5.33205 -24.486
ltibia 31.7826
lfoot -25.6649 -4.28729
ltoes -2.81705
